<svg class="calendar" viewBox="0 0 22 22" fill="none" xmlns="http://www.w3.org/2000/svg">
<path d="M17.4168 3.66634H15.5835V2.74967C15.5835 2.50656 15.4869 2.2734 15.315 2.10149C15.1431 1.92958 14.9099 1.83301 14.6668 1.83301C14.4237 1.83301 14.1906 1.92958 14.0186 2.10149C13.8467 2.2734 13.7502 2.50656 13.7502 2.74967V3.66634H8.25016V2.74967C8.25016 2.50656 8.15359 2.2734 7.98168 2.10149C7.80977 1.92958 7.57661 1.83301 7.3335 1.83301C7.09038 1.83301 6.85722 1.92958 6.68531 2.10149C6.51341 2.2734 6.41683 2.50656 6.41683 2.74967V3.66634H4.5835C3.85415 3.66634 3.15468 3.95607 2.63895 4.4718C2.12323 4.98752 1.8335 5.687 1.8335 6.41634V17.4163C1.8335 18.1457 2.12323 18.8452 2.63895 19.3609C3.15468 19.8766 3.85415 20.1663 4.5835 20.1663H17.4168C18.1462 20.1663 18.8456 19.8766 19.3614 19.3609C19.8771 18.8452 20.1668 18.1457 20.1668 17.4163V6.41634C20.1668 5.687 19.8771 4.98752 19.3614 4.4718C18.8456 3.95607 18.1462 3.66634 17.4168 3.66634ZM18.3335 17.4163C18.3335 17.6595 18.2369 17.8926 18.065 18.0645C17.8931 18.2364 17.6599 18.333 17.4168 18.333H4.5835C4.34038 18.333 4.10722 18.2364 3.93531 18.0645C3.76341 17.8926 3.66683 17.6595 3.66683 17.4163V10.9997H18.3335V17.4163ZM18.3335 9.16634H3.66683V6.41634C3.66683 6.17323 3.76341 5.94007 3.93531 5.76816C4.10722 5.59625 4.34038 5.49967 4.5835 5.49967H6.41683V6.41634C6.41683 6.65946 6.51341 6.89261 6.68531 7.06452C6.85722 7.23643 7.09038 7.33301 7.3335 7.33301C7.57661 7.33301 7.80977 7.23643 7.98168 7.06452C8.15359 6.89261 8.25016 6.65946 8.25016 6.41634V5.49967H13.7502V6.41634C13.7502 6.65946 13.8467 6.89261 14.0186 7.06452C14.1906 7.23643 14.4237 7.33301 14.6668 7.33301C14.9099 7.33301 15.1431 7.23643 15.315 7.06452C15.4869 6.89261 15.5835 6.65946 15.5835 6.41634V5.49967H17.4168C17.6599 5.49967 17.8931 5.59625 18.065 5.76816C18.2369 5.94007 18.3335 6.17323 18.3335 6.41634V9.16634Z" fill="currentColor"/>
</svg>
