<svg width="79" height="24" viewBox="0 0 79 24" fill="none" xmlns="http://www.w3.org/2000/svg">
<g clip-path="url(#clip0_940_562)">
<path d="M13.6637 7.8797V0H11.4446V7.8797L7.48944 1.05263L5.57226 2.16541L9.52741 8.99248L2.67383 5.05263L1.5718 6.9624L8.4103 10.9023H0.5V13.1128H8.4103L1.5718 17.0526L2.67383 18.9624L9.52741 15.0226L5.57226 21.8496L7.48944 22.9474L11.4446 16.1203V24H13.6637V16.1203" fill="white"/>
<path d="M11.4446 7.8797V0H13.6637V7.8797L17.6189 1.06767L19.5361 2.16541L15.5809 8.99248L22.4345 5.05263L23.5365 6.9624L16.6829 10.9023H24.5932V13.1128H16.6829L23.5365 17.0526L22.4345 18.9624L15.5809 15.0226L19.5361 21.8496L17.6189 22.9474L13.6637 16.1203V24H11.4446V16.1203" fill="white"/>
<path d="M32.5859 6.33066V7.67487H36.1393H39.1995C39.5053 7.67487 39.7932 7.81872 39.9769 8.0632C40.2362 8.40442 40.3443 8.83154 40.3574 9.2599C40.3833 10.1101 40.4256 11.6948 40.4407 13.4251L40.4781 18.0925L41.8471 18.1149L43.2086 18.1299V15.0531C43.2011 11.4088 43.1039 8.65316 42.9543 7.96612C42.8121 7.30895 42.6027 6.91315 42.1314 6.42027C41.1681 5.37718 39.6294 5.13754 38.2111 5.07018C37.4081 5.03203 36.4245 4.99957 35.3389 4.99391L32.5859 4.98644V6.33066Z" fill="white"/>
<path d="M47.4072 9.437C47.4072 11.9014 47.4072 14.7588 47.4072 14.7588V18.1381C47.4072 18.1381 48.3124 18.1232 49.0006 18.1381L50.1751 18.1445L53.7135 18.1072C57.5661 18.0699 57.9252 18.0325 58.6209 17.6367C59.1146 17.3455 59.8402 16.6211 60.0796 16.188C60.4387 15.5382 60.4985 14.9632 60.5509 12.1553C60.6033 8.83957 60.5359 8.01064 60.1544 7.23398C59.6158 6.14367 58.4937 5.28487 57.4165 5.12804C57.1546 5.0907 54.7982 5.03843 52.1799 5.01603L47.4072 4.96375V9.437ZM56.2121 7.7418C56.2121 7.7418 57.016 7.7418 57.429 8.06917C57.9105 8.45076 57.9177 9.14097 57.9177 9.75528V11.5579C57.9177 14.5002 57.9027 14.657 57.5212 15.008C57.1098 15.3889 57.035 15.3964 53.4517 15.4262L50.1003 15.4486V11.6102C50.1003 9.50421 50.1003 7.7418 50.1003 7.7418C50.1676 7.66712 56.2121 7.7418 56.2121 7.7418Z" fill="white"/>
<path d="M68.7204 5.06112C67.5833 5.12086 66.8951 5.25528 66.3341 5.5316C65.8628 5.7631 65.2119 6.42027 64.8454 7.0401C64.2918 7.97359 64.422 8.07067 64.4145 12.0436L64.4146 18.1299H65.6201H66.8502H72.1242H77.3981V16.7857V15.4415H72.2064H67.0223L66.9849 12.6186C66.9699 11.0728 66.9774 9.56424 66.9998 9.273C67.1046 8.18269 67.4562 7.87651 68.7578 7.74955C69.1693 7.71221 71.2788 7.67487 73.4557 7.67487H77.3981V6.33066V4.98644L73.6053 5.00138C71.5107 5.00138 69.3189 5.03125 68.7204 5.06112Z" fill="white"/>
<path d="M30.262 4.98748H30.043V12.9472V18.1299H30.4394C30.6639 18.1299 31.2549 18.1075 31.7486 18.0776L32.6612 18.0328V12.9397V4.98748H32.3719H30.262Z" fill="white"/>
</g>
<defs>
<clipPath id="clip0_940_562">
<rect width="78" height="24" fill="white" transform="translate(0.5)"/>
</clipPath>
</defs>
</svg>
