<svg class="playSvg" viewBox="0 0 40 40" fill="none" xmlns="http://www.w3.org/2000/svg">
<circle cx="20" cy="20" r="19" stroke="#1D539C" stroke-width="2"/>
<path d="M26.4502 17.4996L18.4002 12.8829C17.9646 12.6314 17.4702 12.4996 16.9672 12.501C16.4642 12.5024 15.9705 12.6369 15.5363 12.8908C15.1021 13.1447 14.7428 13.509 14.495 13.9467C14.2471 14.3844 14.1195 14.8799 14.1252 15.3829V24.6496C14.1252 25.4054 14.4254 26.1303 14.9599 26.6648C15.4944 27.1993 16.2193 27.4996 16.9752 27.4996C17.4755 27.4987 17.9669 27.3665 18.4002 27.1162L26.4502 22.4996C26.8827 22.2492 27.2418 21.8895 27.4915 21.4566C27.7412 21.0237 27.8726 20.5327 27.8726 20.0329C27.8726 19.5331 27.7412 19.0422 27.4915 18.6092C27.2418 18.1763 26.8827 17.8166 26.4502 17.5662V17.4996ZM25.6168 20.9912L17.5668 25.6746C17.3864 25.7768 17.1826 25.8306 16.9752 25.8306C16.7678 25.8306 16.5639 25.7768 16.3835 25.6746C16.2036 25.5707 16.0542 25.4213 15.9503 25.2414C15.8465 25.0614 15.7918 24.8573 15.7918 24.6496V15.3496C15.7918 15.1418 15.8465 14.9377 15.9503 14.7578C16.0542 14.5779 16.2036 14.4285 16.3835 14.3246C16.5647 14.2239 16.7679 14.1695 16.9752 14.1662C17.1823 14.1705 17.3853 14.2248 17.5668 14.3246L25.6168 18.9746C25.7968 19.0784 25.9463 19.2278 26.0502 19.4077C26.1542 19.5877 26.2089 19.7918 26.2089 19.9996C26.2089 20.2074 26.1542 20.4115 26.0502 20.5914C25.9463 20.7713 25.7968 20.9207 25.6168 21.0246V20.9912Z" fill="#1D539C"/>
</svg>
