<svg width="48" height="48" viewBox="0 0 48 48" fill="none" xmlns="http://www.w3.org/2000/svg">
<path d="M14.0001 29.6596C14.3748 30.0321 14.8817 30.2412 15.4101 30.2412C15.9385 30.2412 16.4454 30.0321 16.8201 29.6596L24.0001 22.5796L31.0801 29.6596C31.4548 30.0321 31.9617 30.2412 32.4901 30.2412C33.0185 30.2412 33.5254 30.0321 33.9001 29.6596C34.0876 29.4737 34.2363 29.2525 34.3379 29.0088C34.4394 28.7651 34.4917 28.5036 34.4917 28.2396C34.4917 27.9756 34.4394 27.7142 34.3379 27.4705C34.2363 27.2268 34.0876 27.0056 33.9001 26.8196L25.4201 18.3396C25.2342 18.1522 25.013 18.0034 24.7693 17.9018C24.5255 17.8003 24.2641 17.748 24.0001 17.748C23.7361 17.748 23.4747 17.8003 23.2309 17.9018C22.9872 18.0034 22.766 18.1522 22.5801 18.3396L14.0001 26.8196C13.8126 27.0056 13.6639 27.2268 13.5623 27.4705C13.4608 27.7142 13.4085 27.9756 13.4085 28.2396C13.4085 28.5037 13.4608 28.7651 13.5623 29.0088C13.6639 29.2525 13.8126 29.4737 14.0001 29.6596Z" fill="white"/>
</svg>
