<svg class="xBtn" viewBox="0 0 60 60" fill="none" xmlns="http://www.w3.org/2000/svg">
<path d="M17.4219 17.4229C17.5961 17.2483 17.803 17.1098 18.0308 17.0152C18.2586 16.9207 18.5028 16.8721 18.7494 16.8721C18.9961 16.8721 19.2403 16.9207 19.4681 17.0152C19.6959 17.1098 19.9028 17.2483 20.0769 17.4229L29.9994 27.3492L39.9219 17.4229C40.0963 17.2486 40.3032 17.1103 40.531 17.016C40.7588 16.9216 41.0029 16.8731 41.2494 16.8731C41.496 16.8731 41.7401 16.9216 41.9679 17.016C42.1957 17.1103 42.4026 17.2486 42.5769 17.4229C42.7513 17.5973 42.8896 17.8042 42.9839 18.032C43.0783 18.2598 43.1268 18.5039 43.1268 18.7504C43.1268 18.997 43.0783 19.2411 42.9839 19.4689C42.8896 19.6966 42.7513 19.9036 42.5769 20.0779L32.6507 30.0004L42.5769 39.9229C42.7513 40.0972 42.8896 40.3042 42.9839 40.532C43.0783 40.7598 43.1268 41.0039 43.1268 41.2504C43.1268 41.497 43.0783 41.7411 42.9839 41.9689C42.8896 42.1966 42.7513 42.4036 42.5769 42.5779C42.4026 42.7523 42.1957 42.8905 41.9679 42.9849C41.7401 43.0792 41.496 43.1278 41.2494 43.1278C41.0029 43.1278 40.7588 43.0792 40.531 42.9849C40.3032 42.8905 40.0963 42.7523 39.9219 42.5779L29.9994 32.6517L20.0769 42.5779C19.9026 42.7523 19.6957 42.8905 19.4679 42.9849C19.2401 43.0792 18.996 43.1278 18.7494 43.1278C18.5029 43.1278 18.2588 43.0792 18.031 42.9849C17.8032 42.8905 17.5963 42.7523 17.4219 42.5779C17.2476 42.4036 17.1093 42.1966 17.015 41.9689C16.9206 41.7411 16.8721 41.497 16.8721 41.2504C16.8721 41.0039 16.9206 40.7598 17.015 40.532C17.1093 40.3042 17.2476 40.0972 17.4219 39.9229L27.3482 30.0004L17.4219 20.0779C17.2473 19.9038 17.1088 19.6968 17.0143 19.469C16.9197 19.2413 16.8711 18.997 16.8711 18.7504C16.8711 18.5038 16.9197 18.2596 17.0143 18.0318C17.1088 17.804 17.2473 17.5971 17.4219 17.4229Z" fill="#2F2F2F"/>
</svg>
